<?xml version="1.0" encoding="UTF-8" standalone="no"?>
<svg
   xmlns:dc="http://purl.org/dc/elements/1.1/"
   xmlns:cc="http://creativecommons.org/ns#"
   xmlns:rdf="http://www.w3.org/1999/02/22-rdf-syntax-ns#"
   xmlns:svg="http://www.w3.org/2000/svg"
   xmlns="http://www.w3.org/2000/svg"
   xmlns:sodipodi="http://sodipodi.sourceforge.net/DTD/sodipodi-0.dtd"
   xmlns:inkscape="http://www.inkscape.org/namespaces/inkscape"
   sodipodi:docname="universal-theme-change-icon.svg"
   inkscape:version="1.0 (4035a4fb49, 2020-05-01)"
   inkscape:export-ydpi="96"
   inkscape:export-xdpi="96"
   inkscape:export-filename="C:\Users\nabard\bitmap.png"
   id="svg8"
   version="1.1"
   viewBox="0 0 210 297"
   height="297mm"
   width="210mm">
  <defs
     id="defs2">
    <inkscape:path-effect
       only_selected="false"
       apply_with_weight="true"
       apply_no_weight="true"
       helper_size="0"
       steps="2"
       weight="33.333333"
       lpeversion="1"
       is_visible="true"
       id="path-effect869"
       effect="bspline" />
    <inkscape:path-effect
       only_selected="false"
       apply_with_weight="true"
       apply_no_weight="true"
       helper_size="0"
       steps="2"
       weight="33.333333"
       lpeversion="1"
       is_visible="true"
       id="path-effect865"
       effect="bspline" />
    <inkscape:path-effect
       only_selected="false"
       apply_with_weight="true"
       apply_no_weight="true"
       helper_size="0"
       steps="2"
       weight="33.333333"
       lpeversion="1"
       is_visible="true"
       id="path-effect857"
       effect="bspline" />
    <inkscape:path-effect
       only_selected="false"
       apply_with_weight="true"
       apply_no_weight="true"
       helper_size="0"
       steps="2"
       weight="33.333333"
       lpeversion="1"
       is_visible="true"
       id="path-effect853"
       effect="bspline" />
    <inkscape:path-effect
       only_selected="false"
       apply_with_weight="true"
       apply_no_weight="true"
       helper_size="0"
       steps="2"
       weight="33.333333"
       lpeversion="1"
       is_visible="true"
       id="path-effect841"
       effect="bspline" />
  </defs>
  <sodipodi:namedview
     inkscape:window-maximized="0"
     inkscape:window-y="3"
     inkscape:window-x="77"
     inkscape:window-height="728"
     inkscape:window-width="820"
     showgrid="false"
     inkscape:document-rotation="0"
     inkscape:current-layer="layer1"
     inkscape:document-units="mm"
     inkscape:cy="518.28094"
     inkscape:cx="386.13024"
     inkscape:zoom="0.35"
     inkscape:pageshadow="2"
     inkscape:pageopacity="0.0"
     borderopacity="1.0"
     bordercolor="#666666"
     pagecolor="#ffffff"
     id="base" />
  <metadata
     id="metadata5">
    <rdf:RDF>
      <cc:Work
         rdf:about="">
        <dc:format>image/svg+xml</dc:format>
        <dc:type
           rdf:resource="http://purl.org/dc/dcmitype/StillImage" />
        <dc:title></dc:title>
      </cc:Work>
    </rdf:RDF>
  </metadata>
  <g
     id="layer1"
     inkscape:groupmode="layer"
     inkscape:label="Layer 1">
    <path
       inkscape:original-d="m 47.624999,98.273808 c 0.252249,22.174872 0.504233,44.349472 0.755952,66.523812 12.599723,5.54402 25.198678,11.08756 37.79762,16.63095 12.095745,-7.05543 24.190739,-14.11085 36.285709,-21.16667 -0.50371,-20.66284 -1.00767,-41.32513 -1.5119,-61.988092 2.6e-4,-0.755703 2.6e-4,-1.007671 0,-1.511903 0.25225,-0.251725 0.50423,-0.503706 0.75595,-0.755955"
       inkscape:path-effect="#path-effect841"
       id="path839"
       d="m 47.624999,98.273808 c 0.251987,22.174872 0.503971,44.349472 6.929849,58.208592 6.425879,13.85912 19.024834,19.40266 31.372059,18.64654 12.347225,-0.75612 24.442223,-7.81153 30.237813,-21.6707 5.79559,-13.85917 5.29163,-34.52146 5.03965,-45.2308 -0.25199,-10.709335 -0.25199,-10.961303 -0.126,-11.339413 0.126,-0.37811 0.37798,-0.630092 0.62996,-0.882077"
       style="fill:#241c1c;stroke:#000000;stroke-width:4.265;stroke-linecap:butt;stroke-linejoin:miter;stroke-opacity:1;fill-opacity:0;stroke-miterlimit:4;stroke-dasharray:none" />
    <path
       inkscape:original-d="m 47.624999,98.273808 c 23.938757,15.119312 47.877248,30.238362 71.815471,45.357142 0.25226,-0.25172 0.50424,-0.5037 0.75596,-0.75595 -0.75571,2.6e-4 -1.51164,2.6e-4 -2.26786,0"
       inkscape:path-effect="#path-effect853"
       id="path851"
       d="m 47.624999,98.273808 c 23.9388,15.119242 47.877292,30.238292 59.972381,37.671722 12.09508,7.43343 12.34706,7.18145 12.0952,7.05546 -0.25186,-0.12599 -1.00779,-0.12599 -1.76401,-0.12599"
       style="fill:#241c1c;stroke:#000000;stroke-width:4.265;stroke-linecap:butt;stroke-linejoin:miter;stroke-opacity:1;fill-opacity:0;stroke-miterlimit:4;stroke-dasharray:none" />
    <path
       inkscape:original-d="m 121.70833,96.005948 c -13.60688,7.559792 -27.214021,15.119312 -40.821425,22.678572 2.016178,1.00822 4.032009,2.52011 6.047618,3.77976"
       inkscape:path-effect="#path-effect857"
       id="path855"
       d="m 121.70833,96.005948 c -13.60706,7.559472 -27.214195,15.119002 -33.066326,19.493462 -5.85213,4.37447 -3.723043,5.70514 -1.707481,6.96487"
       style="fill:#241c1c;stroke:#000000;stroke-width:4.265;stroke-linecap:butt;stroke-linejoin:miter;stroke-opacity:1;fill-opacity:0;stroke-miterlimit:4;stroke-dasharray:none" />
    <path
       inkscape:original-d="M 82.398808,89.958332 C 76.351454,96.258199 70.303836,102.5578 64.255951,108.85714"
       inkscape:path-effect="#path-effect865"
       id="path863"
       d="M 82.398808,89.958332 C 76.351184,96.25794 70.303566,102.55754 64.255951,108.85714"
       style="fill:#241c1c;stroke:#000000;stroke-width:4.265;stroke-linecap:butt;stroke-linejoin:miter;stroke-opacity:1;fill-opacity:0;stroke-miterlimit:4;stroke-dasharray:none" />
    <path
       inkscape:original-d="m 82.398808,89.95833 c 7.307805,5.795901 14.615342,11.59154 21.922622,17.38691"
       inkscape:path-effect="#path-effect869"
       id="path867"
       d="m 82.398808,89.95833 c 7.307832,5.795867 14.615371,11.5915 21.922622,17.38691"
       style="fill:#241c1c;stroke:#000000;stroke-width:4.265;stroke-linecap:butt;stroke-linejoin:miter;stroke-opacity:1;fill-opacity:0;stroke-miterlimit:4;stroke-dasharray:none" />
    <path
       transform="scale(0.26458333)"
       id="path1458"
       d="m 297.55882,650.7461 c -50.9642,-8.31853 -83.62489,-46.23233 -96.94907,-112.54224 -4.88579,-24.31495 -11.44,-103.0472 -11.58088,-139.11503 l -0.0415,-10.62067 47.85714,30.35532 c 26.32143,16.69543 82.76072,52.11366 125.42065,78.70719 l 77.5635,48.35187 -2.82126,10.48492 C 419.8818,620.013 359.52738,660.8608 297.55882,650.7461 Z"
       style="opacity:0.903846;fill:#2b0000;fill-opacity:1;fill-rule:evenodd;stroke:#9080d6;stroke-width:47.1361;stroke-linecap:round;stroke-miterlimit:4;stroke-dasharray:none;stroke-opacity:0.37751" />
    <path
       transform="scale(0.26458333)"
       id="path1460"
       d="m 453.14302,524.84483 c -5.37597,-2.41926 -5.67396,-4.1616 -3.71815,-21.73982 2.84144,-25.53793 3.00598,-126.25264 0.20626,-126.25264 -3.22167,0 -85.00296,47.30342 -103.71384,59.98951 -12.24143,8.29976 -17.0717,10.15829 -20.87272,8.03113 -6.99247,-3.91318 -3.062,-7.817 27.16044,-26.9762 13.94459,-8.84004 25.35381,-16.43941 25.35381,-16.8875 0,-0.44809 -14.611,-12.35681 -32.46888,-26.46384 l -32.46887,-25.64913 -27.48927,27.48927 c -24.1409,24.1409 -27.99231,26.97456 -31.61918,23.26372 -3.62012,-3.70392 -0.64109,-7.8291 24.13297,-33.41782 15.54459,-16.05577 29.07011,-27.88619 30.05671,-26.28984 1.18889,1.92367 3.11012,1.81002 5.69711,-0.33699 3.07724,-2.55388 11.03512,2.43364 37.60278,23.56716 18.53471,14.74363 35.24651,27.74911 37.13733,28.90106 1.97498,1.20323 16.35129,-5.23675 33.78547,-15.13447 16.69119,-9.4759 31.49178,-17.22892 32.8902,-17.22892 1.39841,0 4.12519,2.89286 6.0595,6.42857 4.14411,7.57501 4.63301,130.49933 0.59498,149.59697 -2.21253,10.46406 -3.11739,11.45402 -8.32665,9.10978 z"
       style="opacity:0.903846;fill:#008080;fill-opacity:1;fill-rule:evenodd;stroke:#9080d6;stroke-width:47.1361;stroke-linecap:round;stroke-miterlimit:4;stroke-dasharray:none;stroke-opacity:0.37751" />
    <path
       transform="scale(0.26458333)"
       id="path1462"
       d="m 388.17086,484.64648 c -18.37788,-11.35819 -33.42668,-21.45542 -33.44176,-22.4383 -0.0294,-1.91449 58.32138,-38.09086 66.50234,-41.23019 4.48297,-1.72027 4.89509,1.48088 4.85505,37.71155 -0.024,21.77527 -1.04669,41.17018 -2.27252,43.0998 -1.59907,2.51717 -11.66936,-2.32622 -35.64311,-17.14286 z"
       style="opacity:0.903846;fill:#008080;fill-opacity:1;fill-rule:evenodd;stroke:#9080d6;stroke-width:47.1361;stroke-linecap:round;stroke-miterlimit:4;stroke-dasharray:none;stroke-opacity:0.37751" />
    <path
       transform="scale(0.26458333)"
       id="path1466"
       d="m 289.32521,421.93216 -9.40539,-5.95508 17.08441,-17.08441 17.08441,-17.08441 10.70412,8.16443 10.70412,8.16444 -8.06888,5.78619 c -4.43788,3.1824 -12.71029,9.87618 -18.38314,14.87505 l -10.31426,9.08886 z"
       style="opacity:0.903846;fill:#ffffff;fill-opacity:1;fill-rule:evenodd;stroke:#9080d6;stroke-width:47.1361;stroke-linecap:round;stroke-miterlimit:4;stroke-dasharray:none;stroke-opacity:0.37751" />
    <path
       transform="scale(0.26458333)"
       id="path1468"
       d="m 297.97814,625.34405 c -25.96758,-5.38678 -48.23722,-24.57228 -60.37635,-52.01479 -8.85546,-20.01925 -13.6281,-41.98728 -17.01383,-78.31311 -1.73668,-18.63294 -3.8005,-39.86962 -4.58627,-47.19263 l -1.42868,-13.31457 97.07751,60.45743 c 58.61524,36.50409 97.12889,62.2168 97.20719,64.89804 0.17797,6.09429 -14.02039,27.79778 -25.83669,39.49373 -20.51651,20.30754 -57.6777,31.66261 -85.04288,25.9859 z"
       style="opacity:0.903846;fill:#ffffff;fill-opacity:1;fill-rule:evenodd;stroke:#9080d6;stroke-width:47.1361;stroke-linecap:round;stroke-miterlimit:4;stroke-dasharray:none;stroke-opacity:0.37751" />
    <path
       transform="scale(0.26458333)"
       id="path1470"
       d="m 390.13765,483.80311 c -13.98979,-8.74853 -27.04649,-17.47638 -29.01489,-19.39524 -2.84025,-2.76877 2.9752,-7.47891 28.17688,-22.82148 17.46569,-10.63295 32.15084,-18.9376 32.63367,-18.45477 1.10284,1.10284 1.88055,28.70855 1.57379,55.86361 -0.1734,15.34954 -1.23103,20.71428 -4.08373,20.71428 -2.11736,0 -15.29593,-7.15788 -29.28572,-15.9064 z m 13.13545,-21.23646 c 0,-1.57142 -1.28571,-2.85714 -2.85714,-2.85714 -1.57143,0 -2.85714,1.28572 -2.85714,2.85714 0,1.57143 1.28571,2.85715 2.85714,2.85715 1.57143,0 2.85714,-1.28572 2.85714,-2.85715 z"
       style="opacity:0.903846;fill:#ffffff;fill-opacity:1;fill-rule:evenodd;stroke:#9080d6;stroke-width:47.1361;stroke-linecap:round;stroke-miterlimit:4;stroke-dasharray:none;stroke-opacity:0.37751" />
    <path
       transform="scale(0.26458333)"
       id="path1472"
       d="m 281.17139,616.89183 c -26.22731,-13.2723 -41.11747,-33.84117 -50.72265,-70.06689 -5.03379,-18.98482 -14.77249,-103.3281 -12.22494,-105.87565 3.65902,-3.65902 187.90644,114.86781 187.90644,120.88068 0,5.39744 -14.4152,25.79502 -26.1558,37.01057 -14.28484,13.64602 -40.01866,24.33345 -62.14672,25.80994 -16.83003,1.12299 -20.74134,0.29512 -36.65633,-7.75865 z m 65.64926,-20.63805 c 7.45116,-3.18936 18.18731,-10.93449 23.85812,-17.21139 8.61554,-9.53638 9.6763,-12.02963 6.45245,-15.1661 -4.8868,-4.75432 -131.25562,-84.16678 -133.93437,-84.16678 -1.09367,0 -1.57819,2.89286 -1.07673,6.42857 0.50146,3.53572 2.35564,17.26518 4.12039,30.50992 9.81473,73.66092 46.54752,102.73368 100.58014,79.60578 z"
       style="opacity:0.903846;fill:#ffffff;fill-opacity:1;fill-rule:evenodd;stroke:#9080d6;stroke-width:47.1361;stroke-linecap:round;stroke-miterlimit:4;stroke-dasharray:none;stroke-opacity:0.37751" />
    <path
       transform="scale(0.26458333)"
       id="path1474"
       d="m 301.52486,576.90931 c -3.31867,-1.34089 -8.70497,-5.83365 -11.96956,-9.9839 -6.81898,-8.66893 -15.96173,-31.09883 -14.44738,-35.44374 0.79645,-2.28512 57.97853,31.37453 64.67327,38.06927 2.25432,2.25431 -18.17887,10.18643 -25.70203,9.97747 -3.58619,-0.0996 -9.23562,-1.2782 -12.5543,-2.6191 z"
       style="opacity:0.903846;fill:#ffffff;fill-opacity:1;fill-rule:evenodd;stroke:#a4ebd6;stroke-width:47.1361;stroke-linecap:round;stroke-miterlimit:4;stroke-dasharray:none;stroke-opacity:0.37751004" />
    <path
       transform="scale(0.26458333)"
       id="path1476"
       d="m 388.98739,481.20932 c -13.35715,-8.41575 -24.28572,-16.81791 -24.28572,-18.67145 0,-1.85354 12.21429,-11.04973 27.14286,-20.43597 l 27.14286,-17.0659 1.80481,8.05104 c 2.39596,10.68805 2.85309,49.22821 0.68008,57.33676 -0.94753,3.53571 -3.17998,6.35169 -4.96098,6.25773 -1.78101,-0.094 -14.16677,-7.05646 -27.52391,-15.47221 z m 14.28571,-18.64267 c 0,-1.57142 -1.28571,-2.85714 -2.85714,-2.85714 -1.57143,0 -2.85714,1.28572 -2.85714,2.85714 0,1.57143 1.28571,2.85715 2.85714,2.85715 1.57143,0 2.85714,-1.28572 2.85714,-2.85715 z"
       style="opacity:0.903846;fill:#ffffff;fill-opacity:1;fill-rule:evenodd;stroke:#a4ebd6;stroke-width:47.1361;stroke-linecap:round;stroke-miterlimit:4;stroke-dasharray:none;stroke-opacity:0.37751" />
    <path
       transform="scale(0.26458333)"
       id="path1478"
       d="m 288.15291,421.83818 -7.97734,-6.41438 16.98944,-16.78267 16.98945,-16.78266 10.4054,7.93658 c 5.72297,4.36512 9.38181,8.87459 8.13075,10.02105 -4.79215,4.39146 -35.08811,28.46414 -35.80572,28.45065 -0.41505,-0.008 -4.34445,-2.90066 -8.73198,-6.42857 z"
       style="opacity:0.903846;fill:#ffffff;fill-opacity:1;fill-rule:evenodd;stroke:#a4ebd6;stroke-width:47.1361;stroke-linecap:round;stroke-miterlimit:4;stroke-dasharray:none;stroke-opacity:0.37751" />
    <path
       transform="scale(0.26458333)"
       id="path1480"
       d="m 290.41596,644.27481 c -53.1009,-16.83768 -78.18054,-54.62895 -88.35432,-133.13673 -7.56583,-58.38316 -8.22529,-70.18505 -4.33024,-77.49542 13.07684,-24.54307 25.62147,-20.13707 126.08659,44.28496 104.30147,66.88205 111.96017,74.52131 99.83079,99.57726 -15.64644,32.32125 -50.42023,58.57746 -88.17623,66.57812 -23.19743,4.91564 -30.06686,4.94488 -45.05659,0.19181 z m 55.71428,-19.4389 c 15.18356,-4.43776 36.25887,-18.78395 46.89837,-31.92424 10.63829,-13.13879 18.81592,-27.96708 18.81592,-34.11841 0,-3.09249 -185.37889,-122.36739 -197.73401,-127.22432 -1.3959,-0.54875 -1.86284,5.23697 -1.03765,12.85714 0.8252,7.62017 2.9337,29.22058 4.68557,48.0009 5.30653,56.88684 15.28341,87.36987 36.1578,110.47532 21.96618,24.31394 56.20548,32.45794 92.214,21.93361 z"
       style="opacity:0.903846;fill:#ffffff;fill-opacity:1;fill-rule:evenodd;stroke:#a4ebd6;stroke-width:47.1361;stroke-linecap:round;stroke-miterlimit:4;stroke-dasharray:none;stroke-opacity:0.37751" />
    <path
       transform="scale(0.26458333)"
       id="path1482"
       d=""
       style="opacity:0.903846;fill:#ffffff;fill-opacity:1;fill-rule:evenodd;stroke:#a4ebd6;stroke-width:47.1361;stroke-linecap:round;stroke-miterlimit:4;stroke-dasharray:none;stroke-opacity:0.37751" />
    <path
       transform="scale(0.26458333)"
       id="path1484"
       d=""
       style="opacity:0.903846;fill:#ffffff;fill-opacity:1;fill-rule:evenodd;stroke:#a4ebd6;stroke-width:47.1361;stroke-linecap:round;stroke-miterlimit:4;stroke-dasharray:none;stroke-opacity:0.37751" />
    <path
       transform="scale(0.26458333)"
       id="path1488"
       d="m 466.59739,540.4016 c 0.45034,-2.73779 -0.14597,-6.51489 -1.32515,-8.39356 -1.17918,-1.87867 -0.71116,-21.16439 1.04004,-42.85715 4.13554,-51.22828 1.2101,-120.02883 -5.47956,-128.86843 l -4.70248,-6.21376 -32.74706,18.18037 -32.74707,18.18038 -27.25293,-21.57732 c -14.98912,-11.86752 -31.67265,-25.16538 -37.07452,-29.55079 -6.63888,-5.38966 -10.89044,-7.0864 -13.12002,-5.23601 -1.81415,1.5056 -4.18711,1.8488 -5.27325,0.76266 -1.08615,-1.08615 -15.94149,11.94856 -33.01188,28.96602 -29.65755,29.5656 -31.3085,30.75071 -37.14404,26.66334 l -6.10697,-4.27749 11.07316,-13.94946 c 14.9088,-18.78141 51.63984,-53.06589 54.77608,-51.12759 1.38566,0.85638 3.32695,0.25037 4.31399,-1.34669 0.98703,-1.59706 5.63972,-2.90375 10.33931,-2.90375 13.15144,0 25.98979,7.52063 62.09426,36.37447 8.39405,6.70833 16.91615,12.19696 18.93801,12.19696 2.02185,0 13.79685,-5.58025 26.16666,-12.40056 12.36981,-6.8203 25.9526,-13.25488 30.18398,-14.29906 10.63138,-2.62349 21.27244,2.93519 28.80532,15.04735 6.17112,9.92256 6.3584,12.53801 6.3584,88.79512 0,70.36191 -0.54548,79.66782 -5.22067,89.06472 -5.68339,11.42332 -14.28296,17.27728 -12.88361,8.77023 z"
       style="opacity:0.903846;fill:#ffffff;fill-opacity:1;fill-rule:evenodd;stroke:#a4ebd6;stroke-width:47.1361;stroke-linecap:round;stroke-miterlimit:4;stroke-dasharray:none;stroke-opacity:0.37751" />
    <path
       transform="scale(0.26458333)"
       id="path1490"
       d=""
       style="opacity:0.903846;fill:#ffffff;fill-opacity:1;fill-rule:evenodd;stroke:#a4ebd6;stroke-width:47.1361;stroke-linecap:round;stroke-miterlimit:4;stroke-dasharray:none;stroke-opacity:0.37751" />
    <path
       transform="scale(0.26458333)"
       id="path1496"
       d=""
       style="opacity:0.903846;fill:#ff00ff;fill-opacity:1;fill-rule:evenodd;stroke:#a4bed6;stroke-width:47.1361;stroke-linecap:round;stroke-miterlimit:4;stroke-dasharray:none;stroke-opacity:0.37751004" />
  </g>
</svg>
