<svg id="bad4af54-82ac-4562-8b44-2a290e5ac5cd" data-name="Layer 1" xmlns="http://www.w3.org/2000/svg" width="932" height="741.47674" viewBox="0 0 932 741.47674"><title>server_push</title><circle cx="540.72592" cy="669.72683" r="71.20397" fill="#f2f2f2"/><path d="M690.57671,802.50518a88.57079,88.57079,0,1,1,88.57079-88.57079A88.67127,88.67127,0,0,1,690.57671,802.50518Zm0-175.98379a87.413,87.413,0,1,0,87.413,87.413A87.512,87.512,0,0,0,690.57671,626.52139Z" transform="translate(-134 -79.26163)" fill="#f2f2f2"/><rect x="413.6747" y="96.43694" width="445.12218" height="253.04891" fill="#3f3d56"/><path d="M1066,429.92818H546.494V133.57362H1066Zm-517.14461-2.36139h514.78322V135.935H548.85539Z" transform="translate(-134 -79.26163)" fill="#3f3d56"/><circle cx="636.23579" cy="258.38226" r="55.49269" fill="#00bfa6"/><path d="M780.87589,341.48786c-4.49679-5.15747-8.74222-13.47775-11.23045-20.18366-2.48592,6.70591-6.73135,15.02619-11.22813,20.18366l10.04744-3.635v22.41426h2.36139V337.85281Z" transform="translate(-134 -79.26163)" fill="#fff"/><polygon points="695.866 64.938 600.225 64.938 600.225 46.047 695.866 46.047 705.306 55.493 695.866 64.938" fill="#d0cde1"/><polygon points="601.41 64.938 505.769 64.938 505.769 46.047 601.41 46.047 610.851 55.493 601.41 64.938" fill="#3f3d56"/><polygon points="508.135 64.938 412.494 64.938 412.494 46.047 508.135 46.047 517.576 55.493 508.135 64.938" fill="#00bfa6"/><path d="M218.49353,819.54536l-1.26717-.475c-.27846-.10493-27.99251-10.72311-40.975-34.79939-12.983-24.07742-6.62584-53.06672-6.56012-53.35613l.29921-1.32021,1.26659.475c.27846.10493,27.99194,10.72312,40.975,34.79939,12.983,24.07742,6.62585,53.06672,6.56012,53.35613ZM178.33028,783.1502c10.97621,20.35662,32.87672,30.79147,38.42565,33.17362,1.055-5.94729,4.36361-29.997-6.60279-50.33406-10.96525-20.33472-32.87441-30.78571-38.42564-33.17363C170.67191,738.76689,167.36446,762.81433,178.33028,783.1502Z" transform="translate(-134 -79.26163)" fill="#3f3d56"/><path d="M186.173,775.82536c23.33121,14.03683,32.3168,41.91784,32.3168,41.91784s-28.84178,5.12282-52.173-8.914S134,766.91135,134,766.91135,162.84178,761.78854,186.173,775.82536Z" transform="translate(-134 -79.26163)" fill="#00bfa6"/><path d="M474.035,414.7516s40.6064,21.05517,25.567,40.6064-40.60639-22.55911-40.60639-25.567S474.035,414.7516,474.035,414.7516Z" transform="translate(-134 -79.26163)" fill="#a0616a"/><path d="M428.91675,360.60975s27.07093,33.08669,34.59063,37.59851,13.53546,9.02364,13.53546,10.52758,6.01577,9.02364,6.01577,9.02364l-24.063,21.05517s-27.07093-36.09457-30.07881-36.09457S428.91675,360.60975,428.91675,360.60975Z" transform="translate(-134 -79.26163)" fill="#575a89"/><polygon points="159.562 667.861 141.515 697.94 168.586 709.971 194.153 702.451 179.113 664.853 159.562 667.861" fill="#a0616a"/><path d="M344.69608,419.26342l-15.0394,142.87435S296.57,629.81509,296.57,683.957s-12.03153,69.18126-12.03153,69.18126L322.137,759.154l40.6064-132.34676,67.67732-123.32312L410.86946,380.161l-33.08669-12.03152Z" transform="translate(-134 -79.26163)" fill="#2f2e41"/><path d="M290.55422,775.69732s-11.27955-15.79138-11.27955-11.27956-21.80714,54.89383-3.75985,54.89383,66.17338-3.00788,75.197,0,39.10246-3.00788,36.09458-21.05517S347.704,781.71308,347.704,781.71308,325.94971,751.39049,320.28349,762.04l-5.66622,10.64948Z" transform="translate(-134 -79.26163)" fill="#2f2e41"/><polygon points="318.98 667.861 300.933 697.94 328.003 709.971 353.57 702.451 338.531 664.853 318.98 667.861" fill="#a0616a"/><path d="M449.97191,775.69732s-11.27955-14.28744-11.27955-9.77562-21.80714,53.38989-3.75985,53.38989,66.17338-3.00788,75.197,0,39.10246-3.00788,36.09458-21.05517-39.10246-16.54334-39.10246-16.54334S485.3674,751.39049,479.70118,762.04L474.035,772.68944Z" transform="translate(-134 -79.26163)" fill="#2f2e41"/><path d="M320.633,417.75948s4.51183,40.6064,28.57487,78.20491,58.65368,103.77189,58.65368,103.77189-3.00788,66.17338,13.53547,103.77189,19.55122,57.14974,19.55122,57.14974l40.60639-10.52758s-22.5591-126.331-13.53546-154.90587-34.59063-177.465-34.59063-177.465l-40.60639-34.59063-52.63792-6.01576Z" transform="translate(-134 -79.26163)" fill="#2f2e41"/><circle cx="273.31081" cy="56.59666" r="34.59063" fill="#a0616a"/><path d="M379.04787,137.59837,360.945,176.32627l50.82471,35.20444s-5.98253-41.92667,5.288-52.54409S379.04787,137.59837,379.04787,137.59837Z" transform="translate(-134 -79.26163)" fill="#a0616a"/><path d="M418.38917,214.72752s-24.063-49.63-43.61428-49.63-70.6852,34.59064-69.18126,42.11034,1.50394,9.02364,1.50394,13.53546-10.52758,4.51182-1.50394,7.5197,10.52758,6.01577,10.52758,6.01577l-7.5197,192.50438s33.08669,12.03152,45.11821,7.5197,24.06305-34.59063,24.06305-34.59063-3.00788,40.60639,9.02365,39.10245,57.14973-4.51182,58.65367-10.52758-9.02364-138.36253-9.02364-138.36253Z" transform="translate(-134 -79.26163)" fill="#575a89"/><path d="M308.60151,437.31071s-18.04729,66.17338,7.5197,60.15762,18.04729-58.65368,18.04729-58.65368Z" transform="translate(-134 -79.26163)" fill="#a0616a"/><path d="M340.18426,202.696,296.57,313.98759s-6.01577,12.03153,0,21.05517-3.00788,63.1655,3.00788,75.197,6.01576,33.08669,6.01576,33.08669l34.59063,3.00788,7.5197-132.34676,39.10246-84.22066S383.79853,195.17629,340.18426,202.696Z" transform="translate(-134 -79.26163)" fill="#575a89"/><path d="M351.46381,198.93615s-27.07092,7.5197-36.09457,34.59063Z" transform="translate(-134 -79.26163)" opacity="0.1"/><path d="M384.64235,151.63943c3.36539-.2008,6.65148.93654,9.99353,1.38024,11.95694,1.58745,24.39579-7.08907,27.03588-18.85845a14.46961,14.46961,0,0,1,1.3828-4.50547c1.84022-3.00451,6.03124-3.57732,9.48613-2.88645s6.72979,2.30784,10.24823,2.49245c5.43253.285,10.648-3.05945,13.54322-7.66505s3.715-10.27278,3.3241-15.69873l-2.60432,2.73335a13.22813,13.22813,0,0,1-1.17922-7.18928,8.34254,8.34254,0,0,0-7.90209,2.022c-2.2964.24439-.56324-4.25943-2.26931-5.81588-.71439-.65175-1.80966-.52879-2.77664-.51946-4.88531.0471-8.83729-3.68953-12.687-6.69754a53.91177,53.91177,0,0,0-22.76987-10.38623c-5.5165-1.076-11.38252-1.24887-16.61414.80532-4.29644,1.687-7.89262,4.75958-11.21978,7.95887-8.19058,7.8758-15.44345,17.12959-18.8509,27.96947a47.08427,47.08427,0,0,0-.22551,27.30236c1.373,4.63411,5.511,20.50469,11.56877,20.8743C379.738,165.41966,375.16791,152.20474,384.64235,151.63943Z" transform="translate(-134 -79.26163)" fill="#2f2e41"/><polygon points="253.1 183.008 217.679 234.958 206.351 355.629 253.1 183.008" opacity="0.1"/><rect x="0.43129" y="739.11535" width="556.10756" height="2.36139" fill="#3f3d56"/><path d="M542.76779,504.558l-82.46814-52.93921c29.79536-26.29143,50.78741-55.82469,58.04179-90.41688l82.46813,52.93921A214.511,214.511,0,0,0,542.76779,504.558Z" transform="translate(-134 -79.26163)" fill="#00bfa6"/><rect x="523.02867" y="403.87864" width="50.7699" height="2.36139" transform="translate(171.72299 -311.33008) rotate(32.69784)" fill="#3f3d56"/><rect x="517.9261" y="411.82738" width="50.7699" height="2.36139" transform="translate(175.20837 -307.314) rotate(32.69784)" fill="#3f3d56"/><rect x="512.82352" y="419.77612" width="50.7699" height="2.36139" transform="translate(178.69374 -303.29792) rotate(32.69784)" fill="#3f3d56"/><rect x="507.72095" y="427.72485" width="50.7699" height="2.36139" transform="translate(182.17912 -299.28184) rotate(32.69784)" fill="#3f3d56"/><rect x="502.61837" y="435.67359" width="50.7699" height="2.36139" transform="translate(185.66449 -295.26576) rotate(32.69784)" fill="#3f3d56"/><rect x="497.5158" y="443.62232" width="50.7699" height="2.36139" transform="translate(189.14987 -291.24968) rotate(32.69784)" fill="#3f3d56"/><rect x="492.41323" y="451.57106" width="50.7699" height="2.36139" transform="translate(192.63525 -287.2336) rotate(32.69784)" fill="#3f3d56"/><rect x="487.31065" y="459.5198" width="50.7699" height="2.36139" transform="translate(196.12062 -283.21752) rotate(32.69784)" fill="#3f3d56"/><path d="M559,488.29778l-96.5491-16.78765c17.25764-35.79352,25.14382-71.15859,18.40573-105.855l96.5491,16.78764A214.51094,214.51094,0,0,0,559,488.29778Z" transform="translate(-134 -79.26163)" fill="#f2f2f2"/><rect x="500.2067" y="393.22496" width="50.7699" height="2.36139" transform="matrix(0.98522, 0.17131, -0.17131, 0.98522, -58.66634, -163.4687)" fill="#3f3d56"/><rect x="498.58862" y="402.5309" width="50.7699" height="2.36139" transform="translate(-57.0961 -163.05395) rotate(9.86379)" fill="#3f3d56"/><rect x="496.97053" y="411.83684" width="50.7699" height="2.36139" transform="translate(-55.52585 -162.6392) rotate(9.86379)" fill="#3f3d56"/><rect x="495.35245" y="421.14277" width="50.7699" height="2.36139" transform="translate(-53.9556 -162.22445) rotate(9.86379)" fill="#3f3d56"/><rect x="493.73436" y="430.44871" width="50.7699" height="2.36139" transform="translate(-52.38535 -161.8097) rotate(9.86379)" fill="#3f3d56"/><rect x="492.11627" y="439.75465" width="50.7699" height="2.36139" transform="translate(-50.8151 -161.39495) rotate(9.86379)" fill="#3f3d56"/><rect x="490.49819" y="449.06059" width="50.7699" height="2.36139" transform="translate(-49.24485 -160.98019) rotate(9.86379)" fill="#3f3d56"/><rect x="488.8801" y="458.36652" width="50.7699" height="2.36139" transform="translate(-47.6746 -160.56544) rotate(9.86379)" fill="#3f3d56"/></svg>